<svg xmlns="http://www.w3.org/2000/svg" viewBox="0 0 180 182"><defs><style>.cls-1{fill:#231f20;}.cls-2{fill:none;}</style></defs><title>MenatPinkOfficialLogo_3</title><g id="Layer_2" data-name="Layer 2"><g id="Layer_1-2" data-name="Layer 1"><polygon class="cls-1" points="90.36 83.16 127.58 0.01 52.33 0 90.36 83.16"/><polygon class="cls-1" points="179.86 0.01 134.9 91 89.94 181.99 134.97 181.99 180 182 179.93 91 179.86 0.01"/><path class="cls-2" d="M50.3,80q-3.78-5.38-13.47-5.55l14.87,30.1a23.24,23.24,0,0,0,2.5-11.21A22.62,22.62,0,0,0,50.3,80Z"/><path class="cls-1" d="M61.18,123.77a27.19,27.19,0,0,1-19.92,8.13h-24V182H89.94Z"/><path class="cls-1" d="M36.83,74.48H17.29v37.89H37.75q8,0,12.23-5.19a16.71,16.71,0,0,0,1.72-2.59Z"/><polygon class="cls-1" points="0.05 0.01 0 55.56 27.49 55.56 0.05 0.01"/><path class="cls-1" d="M50.3,80a22.62,22.62,0,0,1,3.9,13.34,23.24,23.24,0,0,1-2.5,11.21l9.48,19.19a34.31,34.31,0,0,0,2.37-2.61q8.79-10.75,8.79-28.07,0-15.19-8.12-26.36T39.3,55.56H27.49l9.34,18.91Q46.52,74.65,50.3,80Z"/></g></g></svg>